<svg viewBox="2 2 30 30" fill="currentColor"
  xmlns="http://www.w3.org/2000/svg">
  <path fill-rule="evenodd" clip-rule="evenodd" d="M5.3335 11.6387V23.7225C5.3335 24.2748 5.78121 24.7225 6.33349 24.7225H27.0002C27.5524 24.7225 28.0002 24.2748 28.0002 23.7225V11.6393L18.3833 18.3454C17.3522 19.0644 15.9823 19.0644 14.9513 18.3454L5.3335 11.6387ZM28.0002 9.02747C28.0002 9.02981 28.0002 9.03216 28.0002 9.0345V9.0471C27.997 9.14601 27.9473 9.23789 27.8658 9.29472L17.2393 16.7049C16.8956 16.9446 16.439 16.9446 16.0953 16.7049L5.46838 9.29446C5.38416 9.23573 5.33396 9.13956 5.33392 9.03689C5.33387 8.86336 5.47453 8.72266 5.64806 8.72266H27.6861C27.8565 8.72266 27.9952 8.85827 28.0002 9.02747ZM30.0002 9.06453V23.7225C30.0002 25.3794 28.657 26.7225 27.0002 26.7225H6.33349C4.67664 26.7225 3.3335 25.3794 3.3335 23.7225V9.0345C3.3335 9.02079 3.33377 9.00713 3.33432 8.99355C3.35737 7.73549 4.3844 6.72266 5.64806 6.72266H27.6861C28.9641 6.72266 30.0002 7.75862 30.0003 9.03664C30.0003 9.04594 30.0003 9.05524 30.0002 9.06453Z"></path>
</svg>