<?xml version="1.0" encoding="utf-8"?>
<svg viewBox="0 -5 78 41" width="30"
  xmlns="http://www.w3.org/2000/svg" fill="#000">
  <g>
    <g>
      <circle cx="0" cy="-3" r="2" />
      <circle cx="6.5" cy="-3" r="3" />
      <circle cx="13" cy="-3" r="2" />
      <circle cx="19.5" cy="-3" r="3" />
      <circle cx="26" cy="-3" r="2" />
      <circle cx="32.5" cy="-3" r="3" />
      <circle cx="39" cy="-3" r="2" />
      <circle cx="45.5" cy="-3" r="3" />
      <circle cx="52" cy="-3" r="2" />
      <circle cx="58.5" cy="-3" r="3" />
      <circle cx="65" cy="-3" r="2" />
      <circle cx="71.5" cy="-3" r="3" />
      <circle cx="78" cy="-3" r="2" />
    </g>
    <g>
      <circle cx="0" cy="5" r="3" />
      <circle cx="6.5" cy="5" r="2" />
      <circle cx="13" cy="5" r="3" />
      <circle cx="19.5" cy="5" r="2" />
      <circle cx="26" cy="5" r="3" />
      <circle cx="32.5" cy="5" r="2" />
      <circle cx="39" cy="5" r="3" />
      <circle cx="45.5" cy="5" r="2" />
      <circle cx="52" cy="5" r="3" />
      <circle cx="58.5" cy="5" r="2" />
      <circle cx="65" cy="5" r="3" />
      <circle cx="71.5" cy="5" r="2" />
      <circle cx="78" cy="5" r="3" />
    </g>
    <g>
      <circle cx="0" cy="13" r="2" />
      <circle cx="6.5" cy="13" r="3" />
      <circle cx="13" cy="13" r="2" />
      <circle cx="19.5" cy="13" r="3" />
      <circle cx="26" cy="13" r="2" />
      <circle cx="32.5" cy="13" r="3" />
      <circle cx="39" cy="13" r="2" />
      <circle cx="45.5" cy="13" r="3" />
      <circle cx="52" cy="13" r="2" />
      <circle cx="58.5" cy="13" r="3" />
      <circle cx="65" cy="13" r="2" />
      <circle cx="71.5" cy="13" r="3" />
      <circle cx="78" cy="13" r="2" />
    </g>
    <g>
      <circle cx="0" cy="21" r="3" />
      <circle cx="6.5" cy="21" r="2" />
      <circle cx="13" cy="21" r="3" />
      <circle cx="19.5" cy="21" r="2" />
      <circle cx="26" cy="21" r="3" />
      <circle cx="32.5" cy="21" r="2" />
      <circle cx="39" cy="21" r="3" />
      <circle cx="45.5" cy="21" r="2" />
      <circle cx="52" cy="21" r="3" />
      <circle cx="58.5" cy="21" r="2" />
      <circle cx="65" cy="21" r="3" />
      <circle cx="71.5" cy="21" r="2" />
      <circle cx="78" cy="21" r="3" />
    </g>
    <g>
      <circle cx="0" cy="29" r="2" />
      <circle cx="6.5" cy="29" r="3" />
      <circle cx="13" cy="29" r="2" />
      <circle cx="19.5" cy="29" r="3" />
      <circle cx="26" cy="29" r="2" />
      <circle cx="32.5" cy="29" r="3" />
      <circle cx="39" cy="29" r="2" />
      <circle cx="45.5" cy="29" r="3" />
      <circle cx="52" cy="29" r="2" />
      <circle cx="58.5" cy="29" r="3" />
      <circle cx="65" cy="29" r="2" />
      <circle cx="71.5" cy="29" r="3" />
      <circle cx="78" cy="29" r="2" />
    </g>
    <g>
      <circle cx="0" cy="37" r="3" />
      <circle cx="6.5" cy="37" r="2" />
      <circle cx="13" cy="37" r="3" />
      <circle cx="19.5" cy="37" r="2" />
      <circle cx="26" cy="37" r="3" />
      <circle cx="32.5" cy="37" r="2" />
      <circle cx="39" cy="37" r="3" />
      <circle cx="45.5" cy="37" r="2" />
      <circle cx="52" cy="37" r="3" />
      <circle cx="58.5" cy="37" r="2" />
      <circle cx="65" cy="37" r="3" />
      <circle cx="71.5" cy="37" r="2" />
      <circle cx="78" cy="37" r="3" />
    </g>
    <g>
      <circle cx="0" cy="45" r="2" />
      <circle cx="6.5" cy="45" r="3" />
      <circle cx="13" cy="45" r="2" />
      <circle cx="19.5" cy="45" r="3" />
      <circle cx="26" cy="45" r="2" />
      <circle cx="32.5" cy="45" r="3" />
      <circle cx="39" cy="45" r="2" />
      <circle cx="45.5" cy="45" r="3" />
      <circle cx="52" cy="45" r="2" />
      <circle cx="58.5" cy="45" r="3" />
      <circle cx="65" cy="45" r="2" />
      <circle cx="71.5" cy="45" r="3" />
      <circle cx="78" cy="45" r="2" />
    </g>
  </g>

</svg>